<?xml version="1.0" encoding="UTF-8" standalone="no"?>
<!-- Created with Inkscape (http://www.inkscape.org/) -->

<svg
   width="158.06386mm"
   height="21.844mm"
   viewBox="0 0 158.06386 21.844"
   version="1.1"
   id="svg5"
   inkscape:version="1.1.1 (3bf5ae0d25, 2021-09-20)"
   sodipodi:docname="header.svg"
   xmlns:inkscape="http://www.inkscape.org/namespaces/inkscape"
   xmlns:sodipodi="http://sodipodi.sourceforge.net/DTD/sodipodi-0.dtd"
   xmlns="http://www.w3.org/2000/svg"
   xmlns:svg="http://www.w3.org/2000/svg">
  <sodipodi:namedview
     id="namedview7"
     pagecolor="#ffffff"
     bordercolor="#666666"
     borderopacity="1.0"
     inkscape:pageshadow="2"
     inkscape:pageopacity="0.0"
     inkscape:pagecheckerboard="0"
     inkscape:document-units="mm"
     showgrid="false"
     inkscape:zoom="1.3950017"
     inkscape:cx="248.74522"
     inkscape:cy="59.856558"
     inkscape:window-width="1920"
     inkscape:window-height="1020"
     inkscape:window-x="0"
     inkscape:window-y="0"
     inkscape:window-maximized="1"
     inkscape:current-layer="text2432" />
  <defs
     id="defs2" />
  <g
     inkscape:label="Layer 1"
     inkscape:groupmode="layer"
     id="layer1"
     transform="translate(-21.040416,-46.91758)">
    <g
       aria-label="[TOML.fortran]"
       id="text2432"
       style="font-weight:600;font-size:25.4px;line-height:1.25;font-family:'Source Sans Pro';-inkscape-font-specification:'Source Sans Pro Semi-Bold';stroke-width:0.264583">
      <path
         d="m 21.040416,68.76158 h 5.461 v -2.0828 h -2.54 v -17.6784 h 2.54 v -2.0828 h -5.461 z"
         style="font-weight:bold;-inkscape-font-specification:'Source Sans Pro Bold';fill:#4e52a3"
         id="path915" />
      <path
         d="m 33.156191,65.90078 h 3.0226 v -14.0716 h 4.7752 v -2.54 H 28.380992 v 2.54 h 4.775199 z"
         style="fill:#de955e"
         id="path917" />
      <path
         d="m 49.539139,66.20558 c 4.3434,0 7.3406,-3.302 7.3406,-8.6868 0,-5.3594 -2.9972,-8.5344 -7.3406,-8.5344 -4.3434,0 -7.3406,3.175 -7.3406,8.5344 0,5.3848 2.9972,8.6868 7.3406,8.6868 z m 0,-2.6162 c -2.5908,0 -4.2418,-2.3622 -4.2418,-6.0706 0,-3.683 1.651,-5.8928 4.2418,-5.8928 2.5654,0 4.2418,2.2098 4.2418,5.8928 0,3.7084 -1.6764,6.0706 -4.2418,6.0706 z"
         style="fill:#de955e"
         id="path919" />
      <path
         d="m 60.181721,65.90078 h 2.7432 v -7.5692 c 0,-1.5748 -0.254,-3.8608 -0.4572,-5.3848 h 0.1016 l 1.3208,4.0132 2.6416,7.4168 h 1.9812 l 2.6924,-7.4168 1.3208,-4.0132 h 0.1016 c -0.2032,1.524 -0.4572,3.81 -0.4572,5.3848 v 7.5692 h 2.794 v -16.6116 h -3.556 l -2.8448,8.128 c -0.3556,1.0668 -0.6096,2.032 -0.9144,3.2512 h -0.1016 c -0.3048,-1.2192 -0.6096,-2.1844 -0.9652,-3.2512 l -2.8448,-8.128 h -3.556 z"
         style="fill:#de955e"
         id="path921" />
      <path
         d="m 79.155477,65.90078 h 9.8806 v -2.54 h -6.858 v -14.0716 h -3.0226 z"
         style="fill:#de955e"
         id="path923" />
      <path
         d="m 93.354039,66.20558 c 1.0922,0 1.9304,-0.8636 1.9304,-2.0066 0,-1.1684 -0.8382,-2.032 -1.9304,-2.032 -1.0922,0 -1.9304,0.8636 -1.9304,2.032 0,1.143 0.8382,2.0066 1.9304,2.0066 z"
         style="fill:#4e52a3"
         id="path925" />
      <path
         d="m 97.875234,65.90078 h 2.793996 l 2.032,-10.287 h 2.3622 l 0.4572,-2.2098 h -2.3368 l 0.2794,-1.4732 c 0.2794,-1.397 0.9144,-2.032 1.8796,-2.032 0.5334,0 1.0414,0.1524 1.3462,0.3556 l 0.9144,-1.9304 c -0.7112,-0.4064 -1.5494,-0.6604 -2.4892,-0.6604 -2.5146,0 -3.937,1.8288 -4.445,4.3688 l -0.254,1.3716 -1.650996,0.1524 -0.4318,2.0574 h 1.6256 z"
         style="font-style:italic;-inkscape-font-specification:'Source Sans Pro Semi-Bold Italic';fill:#a34e9c"
         id="path927" />
      <path
         d="m 109.9656,66.20558 c 3.429,0 6.8834,-3.2258 6.8834,-8.001 0,-3.1242 -1.8542,-5.1054 -4.6736,-5.1054 -3.429,0 -6.8834,3.2512 -6.8834,8.0264 0,3.0988 1.8542,5.08 4.6736,5.08 z m 0.3048,-2.2606 c -1.4224,0 -2.159,-1.0668 -2.159,-2.921 0,-3.175 1.8034,-5.6388 3.7592,-5.6388 1.397,0 2.159,1.0668 2.159,2.8956 0,3.175 -1.8034,5.6642 -3.7592,5.6642 z"
         style="font-style:italic;-inkscape-font-specification:'Source Sans Pro Semi-Bold Italic';fill:#a34e9c"
         id="path929" />
      <path
         d="m 118.29677,65.90078 h 2.794 l 1.4478,-7.5184 c 1.0414,-1.8796 2.2098,-2.794 3.3782,-2.794 0.4318,0 0.8636,0.0254 1.1684,0.1778 l 0.9398,-2.413 c -0.3048,-0.1524 -0.7112,-0.254 -1.27,-0.254 -1.4732,0 -2.8194,1.1684 -3.81,2.7178 h -0.1016 l 0.2286,-2.413 h -2.286 z"
         style="font-style:italic;-inkscape-font-specification:'Source Sans Pro Semi-Bold Italic';fill:#a34e9c"
         id="path931" />
      <path
         d="m 131.93655,66.20558 c 1.143,0 2.0828,-0.3048 2.6924,-0.6096 l -0.5588,-1.8796 c -0.3302,0.1524 -0.762,0.2794 -1.1938,0.2794 -0.9144,0 -1.3462,-0.4572 -1.3462,-1.3716 0,-0.2794 0.0254,-0.5588 0.0762,-0.8636 l 1.2446,-6.1468 h 3.0226 l 0.4572,-2.2098 h -2.9718 l 0.7366,-3.8862 h -2.3368 l -1.1176,3.8862 -1.8796,0.1524 -0.4064,2.0574 h 1.7272 l -1.2446,6.0452 c -0.1016,0.4826 -0.1778,0.9398 -0.1778,1.4478 0,1.778 0.9398,3.0988 3.2766,3.0988 z"
         style="font-style:italic;-inkscape-font-specification:'Source Sans Pro Semi-Bold Italic';fill:#a34e9c"
         id="path933" />
      <path
         d="m 136.40694,65.90078 h 2.794 l 1.4478,-7.5184 c 1.0414,-1.8796 2.2098,-2.794 3.3782,-2.794 0.4318,0 0.8636,0.0254 1.1684,0.1778 l 0.9398,-2.413 c -0.3048,-0.1524 -0.7112,-0.254 -1.27,-0.254 -1.4732,0 -2.8194,1.1684 -3.81,2.7178 h -0.1016 l 0.2286,-2.413 h -2.286 z"
         style="font-style:italic;-inkscape-font-specification:'Source Sans Pro Semi-Bold Italic';fill:#a34e9c"
         id="path935" />
      <path
         d="m 149.31013,66.20558 c 1.397,0 2.921,-0.8128 4.0894,-2.032 h 0.0762 l -0.127,1.7272 h 2.286 l 2.5146,-12.4968 h -2.2606 l -0.508,1.4478 h -0.0762 c -0.5334,-1.0668 -1.6256,-1.7526 -2.8448,-1.7526 -3.4544,0 -6.7056,3.7846 -6.7056,8.5598 0,2.921 1.3462,4.5466 3.556,4.5466 z m 1.143,-2.3114 c -1.1176,0 -1.8034,-0.8128 -1.8034,-2.6162 0,-3.2004 1.905,-5.8674 3.9624,-5.8674 0.762,0 1.524,0.4318 2.0828,1.4732 l -1.016,4.9276 c -0.9906,1.524 -2.1844,2.0828 -3.2258,2.0828 z"
         style="font-style:italic;-inkscape-font-specification:'Source Sans Pro Semi-Bold Italic';fill:#a34e9c"
         id="path937" />
      <path
         d="m 159.26688,65.90078 h 2.794 l 1.651,-8.4836 c 1.3208,-1.3208 2.2606,-1.905 3.1242,-1.905 1.0414,0 1.524,0.508 1.524,1.5494 0,0.381 -0.0762,0.7366 -0.2032,1.3208 l -1.4986,7.5184 h 2.794 l 1.5748,-7.874 c 0.127,-0.6604 0.2032,-1.1684 0.2032,-1.7526 0,-2.0066 -0.889,-3.175 -2.9718,-3.175 -1.5494,0 -2.9718,0.9398 -4.2418,2.0828 h -0.1016 l 0.127,-1.778 h -2.286 z"
         style="font-style:italic;-inkscape-font-specification:'Source Sans Pro Semi-Bold Italic';fill:#a34e9c"
         id="path939" />
      <path
         d="m 173.64327,68.76158 h 5.461 v -21.844 h -5.461 v 2.0828 h 2.54 v 17.6784 h -2.54 z"
         style="font-weight:bold;-inkscape-font-specification:'Source Sans Pro Bold';fill:#4e52a3"
         id="path941" />
    </g>
  </g>
</svg>
